<?xml version="1.0" encoding="UTF-8" standalone="no"?>
<svg width="577px" height="269px" viewBox="0 0 577 269" version="1.1" xmlns="http://www.w3.org/2000/svg" xmlns:xlink="http://www.w3.org/1999/xlink" xmlns:sketch="http://www.bohemiancoding.com/sketch/ns">
    <!-- Generator: Sketch 3.2 (9961) - http://www.bohemiancoding.com/sketch -->
    <title>turnip + Oval 2 + Oval 1</title>
    <desc>Created with Sketch.</desc>
    <defs></defs>
    <g id="Page-1" stroke="none" stroke-width="1" fill="none" fill-rule="evenodd" sketch:type="MSPage">
        <g id="Portrait" sketch:type="MSArtboardGroup" transform="translate(-26.000000, -336.000000)">
            <g id="turnip-+-Oval-2-+-Oval-1" sketch:type="MSLayerGroup" transform="translate(24.000000, 337.000000)">
                <g>
                    <g>
                        <g>
                            <text id="turnip" sketch:type="MSTextLayer" font-family="Avenir" font-size="207.448276" font-weight="686" fill="#2F2E36">
                                <tspan x="0" y="219.010989">turnip</tspan>
                            </text>
                            <g id="Oval-2-+-Oval-1" transform="translate(345.000000, 0.000000)" stroke="#64873A" stroke-width="3" fill="#8CC63E" sketch:type="MSShapeGroup">
                                <path d="M54.4513722,103.416623 C72.2863566,97.2755457 78.9213828,69.5773291 69.2711179,41.550925 C59.6208531,13.5245209 37.3396562,-4.21704161 19.5046718,1.92403601 C1.66968737,8.06511363 -4.96533882,35.7633302 4.68492601,63.7897343 C14.3351908,91.8161384 36.6163877,109.557701 54.4513722,103.416623 Z" id="Oval-2"></path>
                                <path d="M37.8446842,97.7434891 C49.4576901,112.607459 77.8070217,109.863342 101.164688,91.6143328 C124.522355,73.3653235 134.043284,46.5219501 122.430278,31.6579804 C110.817272,16.7940106 82.4679406,19.5381274 59.1102738,37.7871367 C35.752607,56.036146 26.2316783,82.8795193 37.8446842,97.7434891 Z" id="Oval-1"></path>
                            </g>
                        </g>
                    </g>
                </g>
            </g>
        </g>
    </g>
</svg>